<?xml version="1.0" ?><svg id="Message_And_Communication_Icons" style="enable-background:new 0 0 50 50;" version="1.1" viewBox="0 0 50 50" xml:space="preserve" xmlns="http://www.w3.org/2000/svg" xmlns:xlink="http://www.w3.org/1999/xlink"><g><g><g><g><rect height="2.9" style="fill:#4DE0F9;" width="12.3" x="25.2" y="33.2"/></g></g><g><g><polygon points="34.3,24 37.5,21.9 37.5,36.1 34.3,36.1     " style="fill:#4DE0F9;"/></g></g><g><g><path d="M37,35.5H13.5V20.1H37V35.5z M14.7,34.3h21.1v-13H14.7V34.3z" style="fill:#0D5FC3;"/></g></g><g><g><polygon points="25.2,28.5 13.7,21.2 14.4,20.2 25.2,27.1 36.1,20.2 36.7,21.2     " style="fill:#0D5FC3;"/></g></g><g><g><rect height="3.5" style="fill:#4DE0F9;" width="1.1" x="15.7" y="30"/></g></g><g><g><rect height="1.1" style="fill:#4DE0F9;" width="1.1" x="15.7" y="27.8"/></g></g></g><g><g><g><polygon points="43.8,19.4 42.9,20.3 42.3,20.3 39.4,23.3 39.1,23.3 37.5,24.8 37.5,25.3 37.5,25.3       37.5,28.2 38.2,28.2 41.1,25.3 41.4,25.3 44.3,22.3 44.9,22.3 47.8,19.4     " style="fill:#4DE0F9;"/></g></g></g><g><g><g><g><polygon points="44.2,21.9 36.5,21.9 36.5,20.7 43.7,20.7 45.4,19 33.6,19 33.6,20.4 32.4,20.4        32.4,17.8 48.3,17.8      " style="fill:#0D5FC3;"/></g></g><g><g><polygon points="40.7,24.9 36.5,24.9 36.5,23.7 40.2,23.7 41.9,21.9 36.4,21.9 36.4,20.7 44.8,20.7             " style="fill:#0D5FC3;"/></g></g><g><g><polygon points="37.4,27.8 36.5,27.8 36.5,26.6 36.9,26.6 38.6,24.9 36.5,24.9 36.5,23.7 41.5,23.7             " style="fill:#0D5FC3;"/></g></g></g><g><g><g><polygon points="14,21.9 5.8,21.9 1.7,17.8 18.1,17.8 18.1,20.4 16.9,20.4 16.9,19 4.6,19 6.3,20.7        14,20.7      " style="fill:#0D5FC3;"/></g></g><g><g><polygon points="14,24.9 9.8,24.9 5.7,20.7 14.1,20.7 14.1,21.9 8.6,21.9 10.3,23.7 14,23.7      " style="fill:#0D5FC3;"/></g></g><g><g><polygon points="14,27.8 13.1,27.8 9,23.7 14,23.7 14,24.9 11.9,24.9 13.6,26.6 14,26.6      " style="fill:#0D5FC3;"/></g></g></g></g></g></svg>