<svg xmlns="http://www.w3.org/2000/svg" viewBox="0 0 64 64"><linearGradient id="F06GZNEoRkBvwyzm8zDhwa" x1="44" x2="44" y1="19" y2="30.426" gradientUnits="userSpaceOnUse"><stop offset="0" stop-color="#6dc7ff"/><stop offset="1" stop-color="#e6abff"/></linearGradient><circle cx="44" cy="25" r="4" fill="url(#F06GZNEoRkBvwyzm8zDhwa)"/><linearGradient id="F06GZNEoRkBvwyzm8zDhwb" x1="19" x2="19" y1="10.333" y2="61.197" gradientUnits="userSpaceOnUse"><stop offset="0" stop-color="#1a6dff"/><stop offset="1" stop-color="#c822ff"/></linearGradient><rect width="2" height="2" x="18" y="39" fill="url(#F06GZNEoRkBvwyzm8zDhwb)"/><linearGradient id="F06GZNEoRkBvwyzm8zDhwc" x1="19" x2="19" y1="10.333" y2="61.197" gradientUnits="userSpaceOnUse"><stop offset="0" stop-color="#1a6dff"/><stop offset="1" stop-color="#c822ff"/></linearGradient><rect width="2" height="2" x="18" y="35" fill="url(#F06GZNEoRkBvwyzm8zDhwc)"/><linearGradient id="F06GZNEoRkBvwyzm8zDhwd" x1="27" x2="27" y1="10.333" y2="61.197" gradientUnits="userSpaceOnUse"><stop offset="0" stop-color="#1a6dff"/><stop offset="1" stop-color="#c822ff"/></linearGradient><rect width="2" height="2" x="26" y="41" fill="url(#F06GZNEoRkBvwyzm8zDhwd)"/><linearGradient id="F06GZNEoRkBvwyzm8zDhwe" x1="27.379" x2="27.379" y1="11.579" y2="53.161" gradientUnits="userSpaceOnUse"><stop offset="0" stop-color="#1a6dff"/><stop offset="1" stop-color="#c822ff"/></linearGradient><path fill="url(#F06GZNEoRkBvwyzm8zDhwe)" d="M46.758,51H11c-1.654,0-3-1.346-3-3V16c0-1.02,0.514-1.921,1.295-2.463l-1.413-1.413 C6.744,13.041,6,14.428,6,16v32c0,2.757,2.243,5,5,5h18h19.758L46.758,51z"/><linearGradient id="F06GZNEoRkBvwyzm8zDhwf" x1="27.379" x2="27.379" y1="14.816" y2="49.133" gradientUnits="userSpaceOnUse"><stop offset="0" stop-color="#1a6dff"/><stop offset="1" stop-color="#c822ff"/></linearGradient><path fill="url(#F06GZNEoRkBvwyzm8zDhwf)" d="M12,49h32.758l-2-2H32v-7c0-1.654-1.346-3-3-3h-5v-3c0-1.654-1.346-3-3-3h-4 c-1.654,0-3,1.346-3,3v1h-2V17h0.758l-1.734-1.734C10.416,15.609,10,16.253,10,17v30C10,48.103,10.897,49,12,49z M24,39h5 c0.552,0,1,0.449,1,1v7h-2v-2h-2v2h-2V39z M16,34c0-0.551,0.448-1,1-1h4c0.552,0,1,0.449,1,1v13h-2v-4h-2v4h-2V34z M12,37h2v10h-2 V37z"/><linearGradient id="F06GZNEoRkBvwyzm8zDhwg" x1="36.621" x2="36.621" y1="10.455" y2="52.038" gradientUnits="userSpaceOnUse"><stop offset="0" stop-color="#1a6dff"/><stop offset="1" stop-color="#c822ff"/></linearGradient><path fill="url(#F06GZNEoRkBvwyzm8zDhwg)" d="M53,11H15.242l2,2H53c1.654,0,3,1.346,3,3v32c0,1.02-0.514,1.921-1.295,2.463l1.413,1.413 C57.256,50.959,58,49.572,58,48V16C58,13.243,55.757,11,53,11z"/><linearGradient id="F06GZNEoRkBvwyzm8zDhwh" x1="36.621" x2="36.621" y1="14.55" y2="48.867" gradientUnits="userSpaceOnUse"><stop offset="0" stop-color="#1a6dff"/><stop offset="1" stop-color="#c822ff"/></linearGradient><path fill="url(#F06GZNEoRkBvwyzm8zDhwh)" d="M52,15H19.242l2,2H52v30h-0.758l1.734,1.734C53.584,48.391,54,47.747,54,47V17 C54,15.897,53.103,15,52,15z"/><linearGradient id="F06GZNEoRkBvwyzm8zDhwi" x1="32" x2="32" y1="-27.293" y2="-73.791" gradientTransform="matrix(1 0 0 -1 0 -18)" gradientUnits="userSpaceOnUse"><stop offset="0" stop-color="#6dc7ff"/><stop offset="1" stop-color="#e6abff"/></linearGradient><polygon fill="url(#F06GZNEoRkBvwyzm8zDhwi)" points="53.293,54.707 9.293,10.707 10.707,9.293 54.707,53.293"/></svg>