<?xml version="1.0" encoding="UTF-8"?>
<svg version="1.1" viewBox="0 0 1600 1200" xmlns="http://www.w3.org/2000/svg" xmlns:xlink="http://www.w3.org/1999/xlink">
<title>Oreti</title>
<desc>Created with Sketch.</desc>
<defs>
<rect id="e" width="1600" height="1200"/>
<path id="d" d="m0 0.74124h367v341.52c0 50.748-41.078 91.888-91.75 91.888s-91.75 41.14-91.75 91.888v110.93c0 101.5-82.156 183.78-183.5 183.78v-820z"/>
<path id="c" d="m91.908 0c50.76 0 91.908 41.112 91.908 91.825v443.82c0 50.714-41.149 91.825-91.908 91.825-50.76 0-91.908-41.112-91.908-91.825v-443.82c0-50.714 41.149-91.825 91.908-91.825z"/>
<ellipse id="b" cx="174.74" cy="174.69" rx="174.74" ry="174.69"/>
</defs>
<g fill="none" fill-rule="evenodd">
<mask id="a" fill="white">
<use xlink:href="#e"/>
</mask>
<use fill="#F2F2F2" xlink:href="#e"/>
<path id="Shape" d="m155-182c50.81 0 92 41.146 92 91.902v444.2c0 50.756-41.19 91.902-92 91.902h-92v-536.1c0-50.756 41.19-91.902 92-91.902z" fill="#F2F2F2" mask="url(#a)"/>
<path id="Shape" d="m706 94c50.81 0 92 41.148 92 91.908v814.91c0 50.759-41.19 91.908-92 91.908-33.873 0-64.54 20.424-92 61.272v-968.09c0-50.759 41.19-91.908 92-91.908z" fill="#75CBB3" mask="url(#a)"/>
<path id="Shape" d="m706-310c50.81 0 92 41.162 92 91.938v815.19c0 50.776-41.19 91.938-92 91.938-33.873 0-64.54 30.646-92 91.938v-999.06c0-50.776 41.19-91.938 92-91.938z" fill="#F2F2F2" mask="url(#a)"/>
<path id="Shape" d="m155 814c50.81 0 92 41.146 92 91.902v444.2c0 50.756-41.19 91.902-92 91.902h-92v-536.1c0-50.756 41.19-91.902 92-91.902z" fill="#DC2249" mask="url(#a)"/>
<path id="Shape" d="m614 812.5h-367v-863.23h149.86v-5.2667h217.14v868.5zm0 3v27h-367v-27h367zm0 32v24.5h-367v-24.5h367zm0 32.5v21.5h-367v-21.5h367zm0 32.5v18h-367v-18h367zm0 31v17.5h-367v-17.5h367zm0 33.5v11.968c0 0.17754-5.01e-4 0.35497-0.001502 0.53227h-367c-0.001001-0.17731-0.001502-0.35473-0.001502-0.53227v-11.968h367zm-2.0705 31.5c-0.80948 3.7572-1.8477 7.429-3.0992 11h-356.66c-1.2516-3.571-2.2897-7.2428-3.0992-11h362.86zm-13.65 32c-1.9985 2.9608-4.1643 5.7987-6.4839 8.5h-322.59c-2.3196-2.7013-4.4854-5.5392-6.4839-8.5h335.56zm-38.558 32.5c-11.441 5.1409-24.123 8-37.471 8h-183.5c-13.348 0-26.03-2.8591-37.471-8l258.44-1e-5z" fill="#7A4865" mask="url(#a)"/>
<g id="Shape" mask="url(#a)">
<g transform="translate(247 -57)">
<mask fill="white">
<use xlink:href="#d"/>
</mask>
<use id="Shape" fill="#F6CB51" fill-rule="evenodd" xlink:href="#d"/>
</g>
</g>
<path id="Shape" d="m1166 445v528.12c0 50.776-41.19 91.938-92 91.938-33.873 0-64.54 30.646-92 91.938v-790.39c6.5782 44.356 44.815 78.388 91 78.388h93z" fill="#3D2C42" mask="url(#a)"/>
<g id="Shape" mask="url(#a)">
<g transform="translate(982 629)">
<mask fill="white">
<use xlink:href="#c"/>
</mask>
<use id="Shape" fill="#DC2249" fill-rule="evenodd" xlink:href="#c"/>
</g>
</g>
<path id="Shape" d="m154 688.74c-8.8366 0-16-7.2136-16-16.112s7.1634-16.112 16-16.112 16 7.2136 16 16.112-7.1634 16.112-16 16.112zm0 78.259c-8.8366 0-16-7.2136-16-16.112s7.1634-16.112 16-16.112 16 7.2136 16 16.112-7.1634 16.112-16 16.112zm0-234.78c-8.8366 0-16-7.2136-16-16.112s7.1634-16.112 16-16.112 16 7.2136 16 16.112-7.1634 16.112-16 16.112zm0 78.259c-8.8366 0-16-7.2136-16-16.112s7.1634-16.112 16-16.112 16 7.2136 16 16.112-7.1634 16.112-16 16.112z" fill="#75CBB3" mask="url(#a)"/>
<g id="Shape" mask="url(#a)">
<g transform="translate(624 -44)" fill-rule="evenodd">
<mask id="f" fill="white">
<use xlink:href="#b"/>
</mask>
<use id="Shape" fill="#75CBB3" xlink:href="#b"/>
<path id="Shape" d="m542.61-12.259v1043.9c0 50.792-41.175 91.968-91.968 91.968h-183.94c-50.792 0-91.968-41.175-91.968-91.968v-1043.9h367.87z" fill="#F2F2F2" mask="url(#f)"/>
<rect id="Shape" x="174.74" y="173.15" width="174.74" height="297.27" fill="#7A4865" mask="url(#f)"/>
</g>
</g>
<path id="Shape" d="m1394.5 781.51c-2.483 0-4.4959-2.0027-4.4959-4.4731s2.0129-4.4731 4.4959-4.4731c2.483 0 4.4959 2.0027 4.4959 4.4731s-2.0129 4.4731-4.4959 4.4731zm0-31.312c-2.483 0-4.4959-2.0027-4.4959-4.4731 0-2.4705 2.0129-4.4731 4.4959-4.4731 2.483 0 4.4959 2.0027 4.4959 4.4731 0 2.4705-2.0129 4.4731-4.4959 4.4731zm0-31.312c-2.483 0-4.4959-2.0027-4.4959-4.4731 0-2.4705 2.0129-4.4731 4.4959-4.4731 2.483 0 4.4959 2.0027 4.4959 4.4731 0 2.4705-2.0129 4.4731-4.4959 4.4731zm0-31.312c-2.483 0-4.4959-2.0027-4.4959-4.4731s2.0129-4.4731 4.4959-4.4731c2.483 0 4.4959 2.0027 4.4959 4.4731s-2.0129 4.4731-4.4959 4.4731zm0-31.312c-2.483 0-4.4959-2.0027-4.4959-4.4731 0-2.4705 2.0129-4.4731 4.4959-4.4731 2.483 0 4.4959 2.0027 4.4959 4.4731 0 2.4705-2.0129 4.4731-4.4959 4.4731zm0-31.312c-2.483 0-4.4959-2.0027-4.4959-4.4731 0-2.4705 2.0129-4.4731 4.4959-4.4731 2.483 0 4.4959 2.0027 4.4959 4.4731 0 2.4705-2.0129 4.4731-4.4959 4.4731zm-29.545 156.56c-2.483 0-4.4959-2.0027-4.4959-4.4731s2.0129-4.4731 4.4959-4.4731 4.4959 2.0027 4.4959 4.4731-2.0129 4.4731-4.4959 4.4731zm0-31.312c-2.483 0-4.4959-2.0027-4.4959-4.4731 0-2.4705 2.0129-4.4731 4.4959-4.4731s4.4959 2.0027 4.4959 4.4731c0 2.4705-2.0129 4.4731-4.4959 4.4731zm0-31.312c-2.483 0-4.4959-2.0027-4.4959-4.4731 0-2.4705 2.0129-4.4731 4.4959-4.4731s4.4959 2.0027 4.4959 4.4731c0 2.4705-2.0129 4.4731-4.4959 4.4731zm0-31.312c-2.483 0-4.4959-2.0027-4.4959-4.4731s2.0129-4.4731 4.4959-4.4731 4.4959 2.0027 4.4959 4.4731-2.0129 4.4731-4.4959 4.4731zm0-31.312c-2.483 0-4.4959-2.0027-4.4959-4.4731 0-2.4705 2.0129-4.4731 4.4959-4.4731s4.4959 2.0027 4.4959 4.4731c0 2.4705-2.0129 4.4731-4.4959 4.4731zm0-31.312c-2.483 0-4.4959-2.0027-4.4959-4.4731 0-2.4705 2.0129-4.4731 4.4959-4.4731s4.4959 2.0027 4.4959 4.4731c0 2.4705-2.0129 4.4731-4.4959 4.4731zm-29.545 156.56c-2.483 0-4.4959-2.0027-4.4959-4.4731s2.0129-4.4731 4.4959-4.4731c2.483 0 4.4959 2.0027 4.4959 4.4731s-2.0129 4.4731-4.4959 4.4731zm0-31.312c-2.483 0-4.4959-2.0027-4.4959-4.4731 0-2.4705 2.0129-4.4731 4.4959-4.4731 2.483 0 4.4959 2.0027 4.4959 4.4731 0 2.4705-2.0129 4.4731-4.4959 4.4731zm0-31.312c-2.483 0-4.4959-2.0027-4.4959-4.4731 0-2.4705 2.0129-4.4731 4.4959-4.4731 2.483 0 4.4959 2.0027 4.4959 4.4731 0 2.4705-2.0129 4.4731-4.4959 4.4731zm0-31.312c-2.483 0-4.4959-2.0027-4.4959-4.4731s2.0129-4.4731 4.4959-4.4731c2.483 0 4.4959 2.0027 4.4959 4.4731s-2.0129 4.4731-4.4959 4.4731zm0-31.312c-2.483 0-4.4959-2.0027-4.4959-4.4731 0-2.4705 2.0129-4.4731 4.4959-4.4731 2.483 0 4.4959 2.0027 4.4959 4.4731 0 2.4705-2.0129 4.4731-4.4959 4.4731zm0-31.312c-2.483 0-4.4959-2.0027-4.4959-4.4731 0-2.4705 2.0129-4.4731 4.4959-4.4731 2.483 0 4.4959 2.0027 4.4959 4.4731 0 2.4705-2.0129 4.4731-4.4959 4.4731zm-30.829 156.56c-2.483 0-4.4959-2.0027-4.4959-4.4731s2.0129-4.4731 4.4959-4.4731c2.483 0 4.4959 2.0027 4.4959 4.4731s-2.0129 4.4731-4.4959 4.4731zm0-31.312c-2.483 0-4.4959-2.0027-4.4959-4.4731 0-2.4705 2.0129-4.4731 4.4959-4.4731 2.483 0 4.4959 2.0027 4.4959 4.4731 0 2.4705-2.0129 4.4731-4.4959 4.4731zm0-31.312c-2.483 0-4.4959-2.0027-4.4959-4.4731 0-2.4705 2.0129-4.4731 4.4959-4.4731 2.483 0 4.4959 2.0027 4.4959 4.4731 0 2.4705-2.0129 4.4731-4.4959 4.4731zm0-31.312c-2.483 0-4.4959-2.0027-4.4959-4.4731s2.0129-4.4731 4.4959-4.4731c2.483 0 4.4959 2.0027 4.4959 4.4731s-2.0129 4.4731-4.4959 4.4731zm0-31.312c-2.483 0-4.4959-2.0027-4.4959-4.4731 0-2.4705 2.0129-4.4731 4.4959-4.4731 2.483 0 4.4959 2.0027 4.4959 4.4731 0 2.4705-2.0129 4.4731-4.4959 4.4731zm0-31.312c-2.483 0-4.4959-2.0027-4.4959-4.4731 0-2.4705 2.0129-4.4731 4.4959-4.4731 2.483 0 4.4959 2.0027 4.4959 4.4731 0 2.4705-2.0129 4.4731-4.4959 4.4731zm-29.545 156.56c-2.483 0-4.4959-2.0027-4.4959-4.4731s2.0129-4.4731 4.4959-4.4731 4.4959 2.0027 4.4959 4.4731-2.0129 4.4731-4.4959 4.4731zm0-31.312c-2.483 0-4.4959-2.0027-4.4959-4.4731 0-2.4705 2.0129-4.4731 4.4959-4.4731s4.4959 2.0027 4.4959 4.4731c0 2.4705-2.0129 4.4731-4.4959 4.4731zm0-31.312c-2.483 0-4.4959-2.0027-4.4959-4.4731 0-2.4705 2.0129-4.4731 4.4959-4.4731s4.4959 2.0027 4.4959 4.4731c0 2.4705-2.0129 4.4731-4.4959 4.4731zm0-31.312c-2.483 0-4.4959-2.0027-4.4959-4.4731s2.0129-4.4731 4.4959-4.4731 4.4959 2.0027 4.4959 4.4731-2.0129 4.4731-4.4959 4.4731zm0-31.312c-2.483 0-4.4959-2.0027-4.4959-4.4731 0-2.4705 2.0129-4.4731 4.4959-4.4731s4.4959 2.0027 4.4959 4.4731c0 2.4705-2.0129 4.4731-4.4959 4.4731zm0-31.312c-2.483 0-4.4959-2.0027-4.4959-4.4731 0-2.4705 2.0129-4.4731 4.4959-4.4731s4.4959 2.0027 4.4959 4.4731c0 2.4705-2.0129 4.4731-4.4959 4.4731zm-29.545 156.56c-2.483 0-4.4959-2.0027-4.4959-4.4731s2.0129-4.4731 4.4959-4.4731c2.483 0 4.4959 2.0027 4.4959 4.4731s-2.0129 4.4731-4.4959 4.4731zm0-31.312c-2.483 0-4.4959-2.0027-4.4959-4.4731 0-2.4705 2.0129-4.4731 4.4959-4.4731 2.483 0 4.4959 2.0027 4.4959 4.4731 0 2.4705-2.0129 4.4731-4.4959 4.4731zm0-31.312c-2.483 0-4.4959-2.0027-4.4959-4.4731 0-2.4705 2.0129-4.4731 4.4959-4.4731 2.483 0 4.4959 2.0027 4.4959 4.4731 0 2.4705-2.0129 4.4731-4.4959 4.4731zm0-31.312c-2.483 0-4.4959-2.0027-4.4959-4.4731s2.0129-4.4731 4.4959-4.4731c2.483 0 4.4959 2.0027 4.4959 4.4731s-2.0129 4.4731-4.4959 4.4731zm0-31.312c-2.483 0-4.4959-2.0027-4.4959-4.4731 0-2.4705 2.0129-4.4731 4.4959-4.4731 2.483 0 4.4959 2.0027 4.4959 4.4731 0 2.4705-2.0129 4.4731-4.4959 4.4731zm0-31.312c-2.483 0-4.4959-2.0027-4.4959-4.4731 0-2.4705 2.0129-4.4731 4.4959-4.4731 2.483 0 4.4959 2.0027 4.4959 4.4731 0 2.4705-2.0129 4.4731-4.4959 4.4731zm149.01 345.05c-2.483 0-4.4959-2.0027-4.4959-4.4731 0-2.4705 2.0129-4.4731 4.4959-4.4731 2.483 0 4.4959 2.0027 4.4959 4.4731 0 2.4705-2.0129 4.4731-4.4959 4.4731zm0-31.312c-2.483 0-4.4959-2.0027-4.4959-4.4731 0-2.4705 2.0129-4.4731 4.4959-4.4731 2.483 0 4.4959 2.0027 4.4959 4.4731 0 2.4705-2.0129 4.4731-4.4959 4.4731zm0-31.312c-2.483 0-4.4959-2.0027-4.4959-4.4731s2.0129-4.4731 4.4959-4.4731c2.483 0 4.4959 2.0027 4.4959 4.4731s-2.0129 4.4731-4.4959 4.4731zm0-31.312c-2.483 0-4.4959-2.0027-4.4959-4.4731 0-2.4705 2.0129-4.4731 4.4959-4.4731 2.483 0 4.4959 2.0027 4.4959 4.4731 0 2.4705-2.0129 4.4731-4.4959 4.4731zm0-31.312c-2.483 0-4.4959-2.0027-4.4959-4.4731 0-2.4705 2.0129-4.4731 4.4959-4.4731 2.483 0 4.4959 2.0027 4.4959 4.4731 0 2.4705-2.0129 4.4731-4.4959 4.4731zm0-31.312c-2.483 0-4.4959-2.0027-4.4959-4.4731s2.0129-4.4731 4.4959-4.4731c2.483 0 4.4959 2.0027 4.4959 4.4731s-2.0129 4.4731-4.4959 4.4731zm-29.545 156.56c-2.483 0-4.4959-2.0027-4.4959-4.4731 0-2.4705 2.0129-4.4731 4.4959-4.4731s4.4959 2.0027 4.4959 4.4731c0 2.4705-2.0129 4.4731-4.4959 4.4731zm0-31.312c-2.483 0-4.4959-2.0027-4.4959-4.4731 0-2.4705 2.0129-4.4731 4.4959-4.4731s4.4959 2.0027 4.4959 4.4731c0 2.4705-2.0129 4.4731-4.4959 4.4731zm0-31.312c-2.483 0-4.4959-2.0027-4.4959-4.4731s2.0129-4.4731 4.4959-4.4731 4.4959 2.0027 4.4959 4.4731-2.0129 4.4731-4.4959 4.4731zm0-31.312c-2.483 0-4.4959-2.0027-4.4959-4.4731 0-2.4705 2.0129-4.4731 4.4959-4.4731s4.4959 2.0027 4.4959 4.4731c0 2.4705-2.0129 4.4731-4.4959 4.4731zm0-31.312c-2.483 0-4.4959-2.0027-4.4959-4.4731 0-2.4705 2.0129-4.4731 4.4959-4.4731s4.4959 2.0027 4.4959 4.4731c0 2.4705-2.0129 4.4731-4.4959 4.4731zm0-31.312c-2.483 0-4.4959-2.0027-4.4959-4.4731s2.0129-4.4731 4.4959-4.4731 4.4959 2.0027 4.4959 4.4731-2.0129 4.4731-4.4959 4.4731zm-29.545 156.56c-2.483 0-4.4959-2.0027-4.4959-4.4731 0-2.4705 2.0129-4.4731 4.4959-4.4731 2.483 0 4.4959 2.0027 4.4959 4.4731 0 2.4705-2.0129 4.4731-4.4959 4.4731zm0-31.312c-2.483 0-4.4959-2.0027-4.4959-4.4731 0-2.4705 2.0129-4.4731 4.4959-4.4731 2.483 0 4.4959 2.0027 4.4959 4.4731 0 2.4705-2.0129 4.4731-4.4959 4.4731zm0-31.312c-2.483 0-4.4959-2.0027-4.4959-4.4731s2.0129-4.4731 4.4959-4.4731c2.483 0 4.4959 2.0027 4.4959 4.4731s-2.0129 4.4731-4.4959 4.4731zm0-31.312c-2.483 0-4.4959-2.0027-4.4959-4.4731 0-2.4705 2.0129-4.4731 4.4959-4.4731 2.483 0 4.4959 2.0027 4.4959 4.4731 0 2.4705-2.0129 4.4731-4.4959 4.4731zm0-31.312c-2.483 0-4.4959-2.0027-4.4959-4.4731 0-2.4705 2.0129-4.4731 4.4959-4.4731 2.483 0 4.4959 2.0027 4.4959 4.4731 0 2.4705-2.0129 4.4731-4.4959 4.4731zm0-31.312c-2.483 0-4.4959-2.0027-4.4959-4.4731s2.0129-4.4731 4.4959-4.4731c2.483 0 4.4959 2.0027 4.4959 4.4731s-2.0129 4.4731-4.4959 4.4731zm-30.829 156.56c-2.483 0-4.4959-2.0027-4.4959-4.4731 0-2.4705 2.0129-4.4731 4.4959-4.4731 2.483 0 4.4959 2.0027 4.4959 4.4731 0 2.4705-2.0129 4.4731-4.4959 4.4731zm0-31.312c-2.483 0-4.4959-2.0027-4.4959-4.4731 0-2.4705 2.0129-4.4731 4.4959-4.4731 2.483 0 4.4959 2.0027 4.4959 4.4731 0 2.4705-2.0129 4.4731-4.4959 4.4731zm0-31.312c-2.483 0-4.4959-2.0027-4.4959-4.4731s2.0129-4.4731 4.4959-4.4731c2.483 0 4.4959 2.0027 4.4959 4.4731s-2.0129 4.4731-4.4959 4.4731zm0-31.312c-2.483 0-4.4959-2.0027-4.4959-4.4731 0-2.4705 2.0129-4.4731 4.4959-4.4731 2.483 0 4.4959 2.0027 4.4959 4.4731 0 2.4705-2.0129 4.4731-4.4959 4.4731zm0-31.312c-2.483 0-4.4959-2.0027-4.4959-4.4731 0-2.4705 2.0129-4.4731 4.4959-4.4731 2.483 0 4.4959 2.0027 4.4959 4.4731 0 2.4705-2.0129 4.4731-4.4959 4.4731zm0-31.312c-2.483 0-4.4959-2.0027-4.4959-4.4731s2.0129-4.4731 4.4959-4.4731c2.483 0 4.4959 2.0027 4.4959 4.4731s-2.0129 4.4731-4.4959 4.4731zm-29.545 156.56c-2.483 0-4.4959-2.0027-4.4959-4.4731 0-2.4705 2.0129-4.4731 4.4959-4.4731s4.4959 2.0027 4.4959 4.4731c0 2.4705-2.0129 4.4731-4.4959 4.4731zm0-31.312c-2.483 0-4.4959-2.0027-4.4959-4.4731 0-2.4705 2.0129-4.4731 4.4959-4.4731s4.4959 2.0027 4.4959 4.4731c0 2.4705-2.0129 4.4731-4.4959 4.4731zm0-31.312c-2.483 0-4.4959-2.0027-4.4959-4.4731s2.0129-4.4731 4.4959-4.4731 4.4959 2.0027 4.4959 4.4731-2.0129 4.4731-4.4959 4.4731zm0-31.312c-2.483 0-4.4959-2.0027-4.4959-4.4731 0-2.4705 2.0129-4.4731 4.4959-4.4731s4.4959 2.0027 4.4959 4.4731c0 2.4705-2.0129 4.4731-4.4959 4.4731zm0-31.312c-2.483 0-4.4959-2.0027-4.4959-4.4731 0-2.4705 2.0129-4.4731 4.4959-4.4731s4.4959 2.0027 4.4959 4.4731c0 2.4705-2.0129 4.4731-4.4959 4.4731zm0-31.312c-2.483 0-4.4959-2.0027-4.4959-4.4731s2.0129-4.4731 4.4959-4.4731 4.4959 2.0027 4.4959 4.4731-2.0129 4.4731-4.4959 4.4731zm-29.545 156.56c-2.483 0-4.4959-2.0027-4.4959-4.4731 0-2.4705 2.0129-4.4731 4.4959-4.4731 2.483 0 4.4959 2.0027 4.4959 4.4731 0 2.4705-2.0129 4.4731-4.4959 4.4731zm0-31.312c-2.483 0-4.4959-2.0027-4.4959-4.4731 0-2.4705 2.0129-4.4731 4.4959-4.4731 2.483 0 4.4959 2.0027 4.4959 4.4731 0 2.4705-2.0129 4.4731-4.4959 4.4731zm0-31.312c-2.483 0-4.4959-2.0027-4.4959-4.4731s2.0129-4.4731 4.4959-4.4731c2.483 0 4.4959 2.0027 4.4959 4.4731s-2.0129 4.4731-4.4959 4.4731zm0-31.312c-2.483 0-4.4959-2.0027-4.4959-4.4731 0-2.4705 2.0129-4.4731 4.4959-4.4731 2.483 0 4.4959 2.0027 4.4959 4.4731 0 2.4705-2.0129 4.4731-4.4959 4.4731zm0-31.312c-2.483 0-4.4959-2.0027-4.4959-4.4731 0-2.4705 2.0129-4.4731 4.4959-4.4731 2.483 0 4.4959 2.0027 4.4959 4.4731 0 2.4705-2.0129 4.4731-4.4959 4.4731zm0-31.312c-2.483 0-4.4959-2.0027-4.4959-4.4731s2.0129-4.4731 4.4959-4.4731c2.483 0 4.4959 2.0027 4.4959 4.4731s-2.0129 4.4731-4.4959 4.4731z" fill="#DC2249" mask="url(#a)"/>
<g id="Shape" mask="url(#a)">
<g transform="translate(483 388)">
<ellipse cx="223.72" cy="223.65" rx="223.72" ry="223.65" fill="#F2F2F2"/>
<ellipse cx="288.08" cy="143.99" rx="98.069" ry="98.039" fill="#75CBB3"/>
</g>
</g>
<circle id="Shape" cx="430.5" cy="222.5" r="70.5" fill="#7A4865" mask="url(#a)"/>
<circle id="Shape" cx="1091.5" cy="328.5" r="70.5" fill="#7A4865" mask="url(#a)"/>
<circle id="g" cx="300" cy="126" r="26" fill="#7A4865" mask="url(#a)"/>
<circle cx="326.5" cy="366.5" r="34.5" fill="#F2F2F2" mask="url(#a)"/>
</g>
</svg>
